<svg viewBox="0 0 1024 1024" xmlns="http://www.w3.org/2000/svg" p-id="1619"><path d="M511.872 676.8c-0.003 0-0.006 0-0.008 0-9.137 0-17.379-3.829-23.21-9.97l-251.277-265.614c-5.415-5.72-8.743-13.464-8.744-21.984 0-17.678 14.33-32.008 32.008-32.008 9.157 0 17.416 3.845 23.25 10.009l228.045 241.103 228.224-241.088c5.855-6.165 14.113-10.001 23.266-10.001 8.516 0 16.256 3.32 21.998 8.736 12.784 12.145 13.36 32.434 1.264 45.233l-251.52 265.6c-5.844 6.155-14.086 9.984-23.223 9.984-0.025 0-0.051 0-0.076 0z" p-id="1620"></path></svg>