<svg viewBox="0 0 1024 1024" version="1.1" xmlns="http://www.w3.org/2000/svg">
  <path d="M64 524C64 719.602 189.356 885.926 364.113 947.017 387.65799 953 384 936.115 384 924.767L384 847.107C248.118 863.007 242.674 773.052 233.5 758.001 215 726.501 171.5 718.501 184.5 703.501 215.5 687.501 247 707.501 283.5 761.501 309.956 800.642 361.366 794.075 387.658 787.497 393.403 763.997 405.637 743.042 422.353 726.638 281.774 701.609 223 615.67 223 513.5 223 464.053 239.322 418.406 271.465 381.627 251.142 320.928 273.421 269.19 276.337 261.415 334.458 256.131 394.888 302.993 399.549 306.685 432.663 297.835 470.341 293 512.5 293 554.924 293 592.81 297.896 626.075 306.853 637.426 298.219 693.46 258.054 747.5 262.966 750.382 270.652 772.185 321.292 753.058 381.083 785.516 417.956 802 463.809 802 513.5 802 615.874 742.99 701.953 601.803 726.786 625.381 750.003 640 782.295 640 818.008L640 930.653C640.752 939.626 640 948.664978 655.086 948.665 832.344 888.962 960 721.389 960 524 960 276.576 759.424 76 512 76 264.577 76 64 276.576 64 524Z"></path>
</svg>
