<svg viewBox="0 0 1024 1024" version="1.1" xmlns="http://www.w3.org/2000/svg" xmlns:xlink="http://www.w3.org/1999/xlink">
  <path d="M527.061333 166.528A277.333333 277.333333 0 0 1 1000.618667 362.666667a277.333333 277.333333 0 0 1-81.28 196.138666l-377.173334 377.173334a42.666667 42.666667 0 0 1-60.330666 0l-377.173334-377.173334a277.376 277.376 0 0 1 392.277334-392.277333l15.061333 15.061333 15.061333-15.061333z m286.72 377.173333l45.226667-45.226666a192 192 0 0 0-135.808-327.893334 192 192 0 0 0-135.808 56.32l-45.226667 45.226667a42.666667 42.666667 0 0 1-60.330666 0l-45.226667-45.226667a192.042667 192.042667 0 0 0-271.616 271.573334L512 845.482667l301.781333-301.781334z"></path>
</svg>
